<?xml version="1.0" encoding="UTF-8"?><svg id="b" xmlns="http://www.w3.org/2000/svg" width="414" height="338" viewBox="0 0 414 338"><g id="c"><g id="maze-walls"><path d="M70.72,143.36l4.9.98,17.66,3.51,4.91.98c.29-1.65.62-3.28.98-4.9,1.29-5.84,3.02-11.52,5.16-16.99l18.48,7.66c-1.65,4.28-3,8.7-4.03,13.24-.37,1.62-.69,3.26-.97,4.9-.77,4.49-1.23,9.09-1.35,13.77-.02.83-.03,1.66-.03,2.5s.01,1.67.03,2.5c.12,4.68.58,9.28,1.35,13.77.28,1.65.61,3.29.97,4.9,1.03,4.54,2.38,8.96,4.03,13.24.6,1.56,1.24,3.1,1.92,4.62l4.62-1.91,16.65-6.9c1.3,2.84,2.76,5.58,4.4,8.22.88,1.42,1.82,2.8,2.79,4.15,1.82,2.52,3.79,4.93,5.92,7.2,1.14,1.22,2.32,2.4,3.54,3.54,2.27,2.12,4.67,4.09,7.2,5.91,1.35.97,2.73,1.91,4.15,2.79,2.63,1.64,5.38,3.1,8.22,4.4l-6.9,16.65-1.91,4.62-7.65,18.48c-5.45-2.4-10.68-5.21-15.65-8.39-1.41-.9-2.79-1.83-4.15-2.79l-2.78,4.16-10,14.96c-6.1-4.25-11.85-8.98-17.19-14.13-1.2-1.16-2.38-2.34-3.54-3.54-5.15-5.34-9.88-11.09-14.13-17.19-.95-1.37-1.89-2.75-2.79-4.15-4.01-6.22-7.53-12.78-10.52-19.62-.67-1.53-1.32-3.06-1.93-4.61-2.71-6.85-4.87-13.98-6.47-21.31-.35-1.62-.69-3.26-.98-4.9-1.3-7.21-2.03-14.62-2.16-22.16h18c.13,6.35.75,12.58,1.82,18.65.29,1.65.62,3.28.98,4.9,1.36,6.16,3.18,12.16,5.44,17.93.61,1.55,1.25,3.09,1.92,4.61,2.53,5.75,5.49,11.27,8.85,16.51.9,1.4,1.83,2.79,2.79,4.15,3.59,5.13,7.57,9.97,11.89,14.47,1.15,1.2,2.33,2.38,3.54,3.54l3.53-3.53,14.14-14.14,3.54-3.54c-1.21-1.15-2.39-2.32-3.54-3.54l-3.54,3.54-14.14,14.14c-4.09-4.27-7.86-8.86-11.27-13.71-.96-1.36-1.89-2.75-2.79-4.15-3.18-4.97-5.98-10.2-8.39-15.65-.67-1.52-1.32-3.06-1.92-4.62-2.14-5.48-3.87-11.15-5.16-16.99-.36-1.62-.69-3.26-.98-4.9-1.01-5.76-1.6-11.66-1.73-17.68-.02-.83-.03-1.66-.03-2.5s.01-1.67.03-2.5h-28c-.01.83-.03,1.66-.03,2.5s.02,1.67.03,2.5c.13,7.88.9,15.61,2.26,23.14.3,1.65.63,3.28.98,4.9,1.66,7.66,3.92,15.09,6.75,22.25.61,1.55,1.26,3.09,1.93,4.61,3.12,7.15,6.79,13.99,10.98,20.48.9,1.4,1.84,2.78,2.79,4.15,4.44,6.38,9.37,12.38,14.75,17.95,1.16,1.2,2.34,2.38,3.54,3.54,5.57,5.38,11.57,10.32,17.95,14.75,1.37.95,2.75,1.88,4.15,2.79l2.78-4.16,10-14.96c5.24,3.36,10.76,6.32,16.51,8.85l-6.89,16.63-1.91,4.62c1.53.67,3.06,1.31,4.61,1.93l1.91-4.62,6.89-16.64,1.91-4.62,7.66-18.48,1.91-4.62,6.89-16.64,1.91-4.62c-1.57-.58-3.1-1.24-4.61-1.93-2.54-1.17-5-2.48-7.35-3.94-1.42-.88-2.8-1.81-4.15-2.79-2.25-1.63-4.41-3.4-6.44-5.29-1.22-1.14-2.4-2.31-3.54-3.54-1.89-2.04-3.66-4.19-5.29-6.44-.98-1.35-1.91-2.73-2.79-4.15-1.46-2.36-2.77-4.82-3.94-7.35-.69-1.51-1.35-3.04-1.93-4.61-.97-2.59-1.77-5.26-2.41-7.99-.38-1.61-.72-3.25-.98-4.9-.44-2.72-.7-5.49-.8-8.3-.03-.83-.06-1.66-.06-2.5s.03-1.67.06-2.5h-5c-.03.83-.06,1.66-.06,2.5s.04,1.67.06,2.5c.11,3.15.41,6.25.9,9.28.27,1.65.6,3.29.98,4.9.72,3.05,1.61,6.03,2.7,8.92l-16.64,6.89c-1.53-3.97-2.78-8.08-3.74-12.3-.37-1.62-.69-3.26-.97-4.91-.71-4.18-1.14-8.45-1.26-12.8-.02-.83-.04-1.66-.04-2.5s.01-1.67.04-2.5c.12-4.35.55-8.62,1.26-12.79.28-1.65.6-3.29.97-4.91.96-4.22,2.22-8.33,3.74-12.3l16.64,6.89,4.62,1.91c.58-1.57,1.23-3.1,1.93-4.61,1.17-2.54,2.48-4.99,3.94-7.35.88-1.42,1.81-2.8,2.79-4.15,1.63-2.25,3.4-4.41,5.29-6.44,1.14-1.22,2.31-2.4,3.54-3.54l-3.53-3.53c-1.22,1.14-2.4,2.32-3.54,3.54-2.12,2.27-4.09,4.67-5.91,7.2-.97,1.35-1.91,2.73-2.79,4.15-1.64,2.63-3.1,5.38-4.4,8.22l-16.65-6.9-4.62-1.91-18.48-7.65c2.4-5.45,5.21-10.68,8.39-15.65.9-1.41,1.83-2.79,2.79-4.15,3.41-4.86,7.18-9.44,11.27-13.71,1.15-1.2,2.33-2.38,3.54-3.54l-3.53-3.53c-1.2,1.15-2.38,2.33-3.54,3.54-4.32,4.5-8.3,9.34-11.89,14.47-.96,1.36-1.89,2.75-2.79,4.15-3.36,5.24-6.32,10.76-8.85,16.51-.67,1.52-1.32,3.06-1.92,4.61-2.26,5.78-4.09,11.77-5.44,17.93l-17.66-3.51-4.9-.98-19.63-3.91c1.92-8.96,4.56-17.66,7.87-26.01.62-1.55,1.26-3.09,1.92-4.62,3.62-8.37,7.92-16.38,12.83-23.96.91-1.4,1.84-2.78,2.79-4.15,5.17-7.47,10.94-14.49,17.25-20.99,1.16-1.2,2.34-2.37,3.54-3.54,6.5-6.31,13.52-12.08,20.99-17.25,1.37-.95,2.75-1.88,4.15-2.79,7.58-4.91,15.59-9.2,23.96-12.83l7.67,18.52,1.91,4.62,6.89,16.63c-5.75,2.53-11.27,5.49-16.51,8.85l-10-14.96-2.78-4.16c-1.4.9-2.78,1.84-4.15,2.79-6.38,4.44-12.38,9.37-17.95,14.75-1.2,1.16-2.38,2.34-3.54,3.54-5.38,5.57-10.32,11.57-14.75,17.95-.95,1.37-1.88,2.75-2.79,4.15-4.19,6.49-7.87,13.34-10.98,20.48-.67,1.53-1.31,3.06-1.93,4.61l4.62,1.91c.61-1.55,1.26-3.09,1.93-4.61,2.99-6.84,6.51-13.4,10.52-19.62.9-1.4,1.84-2.78,2.79-4.15,4.25-6.1,8.98-11.85,14.13-17.19,1.16-1.2,2.34-2.38,3.54-3.54,5.34-5.15,11.09-9.88,17.19-14.13l10,14.96,2.78,4.16c1.36-.96,2.75-1.89,4.15-2.79,4.97-3.18,10.2-5.99,15.65-8.39l7.65,18.48c-4.23,1.89-8.3,4.08-12.19,6.54-1.41.89-2.8,1.82-4.15,2.78-3.77,2.67-7.34,5.61-10.68,8.78-1.21,1.15-2.39,2.33-3.54,3.54l3.54,3.54c1.15-1.21,2.32-2.39,3.54-3.54,3.11-2.94,6.42-5.67,9.92-8.16,1.36-.96,2.75-1.89,4.16-2.78,3.61-2.28,7.39-4.32,11.32-6.08,1.52-.68,3.06-1.32,4.62-1.92,3.97-1.53,8.08-2.78,12.3-3.74,1.62-.37,3.26-.69,4.91-.97,4.18-.71,8.45-1.14,12.8-1.26.83-.02,1.66-.04,2.5-.04s1.67.01,2.5.04v-5c-.83-.02-1.66-.03-2.5-.03s-1.67.01-2.5.03c-4.68.12-9.28.58-13.77,1.35-1.65.28-3.29.61-4.9.97-4.54,1.03-8.96,2.38-13.24,4.03l-7.66-18.48-1.91-4.62-6.89-16.64-1.91-4.62-7.67-18.51c8.35-3.32,17.05-5.96,26.01-7.87,1.63-.35,3.26-.68,4.9-.98,8.79-1.6,17.83-2.49,27.04-2.63v25c.83-.01,1.66-.03,2.5-.03s1.67.02,2.5.03V5.03c9.22.14,18.25,1.03,27.04,2.63,1.64.3,3.28.63,4.9.98,8.96,1.92,17.66,4.56,26.01,7.87l-7.67,18.51c-7.15-2.83-14.59-5.09-22.25-6.75-1.63-.35-3.26-.69-4.9-.98l-.98,4.9-3.51,17.66c-6.07-1.08-12.3-1.69-18.65-1.82-.83-.02-1.66-.03-2.5-.03s-1.67.01-2.5.03c-6.35.13-12.58.75-18.65,1.82l-3.51-17.66-.98-4.9c-1.65.3-3.28.63-4.9.98l.98,4.9,3.51,17.66.98,4.9c1.62-.36,3.26-.69,4.9-.98,5.76-1.01,11.66-1.6,17.67-1.73.83-.02,1.66-.03,2.5-.03s1.67.01,2.5.03c6.01.13,11.92.71,17.67,1.73,1.65.29,3.28.62,4.9.98l.98-4.9,3.51-17.66c7.33,1.59,14.46,3.76,21.31,6.47,1.55.61,3.09,1.26,4.61,1.93l1.91-4.62,7.67-18.52c8.37,3.62,16.38,7.92,23.96,12.83,1.4.91,2.78,1.84,4.15,2.79,7.47,5.17,14.49,10.94,20.99,17.25l-14.19,14.19-3.53,3.53c1.2,1.16,2.38,2.34,3.54,3.54l3.53-3.53,14.19-14.19c6.31,6.5,12.08,13.52,17.25,20.99.95,1.37,1.88,2.75,2.79,4.15,4.91,7.58,9.2,15.59,12.83,23.96.66,1.53,1.31,3.06,1.92,4.62,3.32,8.35,5.96,17.05,7.87,26.01.35,1.63.68,3.26.98,4.9l4.92-.98c-.3-1.64-.62-3.28-.97-4.91-1.96-9.23-4.68-18.24-8.14-26.96-.61-1.55-1.25-3.09-1.91-4.62-3.72-8.61-8.16-16.91-13.31-24.82-.91-1.4-1.83-2.78-2.79-4.15-5.31-7.66-11.28-14.92-17.9-21.73-.58-.6-1.16-1.2-1.75-1.79s-1.19-1.17-1.79-1.75c-6.81-6.61-14.08-12.59-21.73-17.9-1.37-.95-2.76-1.88-4.15-2.79-7.91-5.14-16.21-9.59-24.82-13.31-1.53-.66-3.07-1.3-4.62-1.91-8.72-3.46-17.73-6.18-26.96-8.14-1.63-.35-3.26-.67-4.91-.97C233.78,1.08,224.42.17,214.93.03c-.83-.01-1.67-.03-2.5-.03s-1.67.02-2.5.03c-9.49.14-18.86,1.05-28.02,2.71-1.64.3-3.28.62-4.91.97-9.23,1.96-18.24,4.68-26.96,8.14-1.55.61-3.09,1.25-4.62,1.91-8.61,3.72-16.91,8.16-24.82,13.31-1.4.91-2.78,1.84-4.15,2.79-7.66,5.31-14.92,11.28-21.73,17.9-.6.58-1.2,1.16-1.79,1.75s-1.17,1.19-1.75,1.79c-6.61,6.81-12.59,14.08-17.9,21.73-.95,1.37-1.88,2.76-2.79,4.15-5.14,7.91-9.59,16.21-13.31,24.82-.66,1.53-1.3,3.07-1.91,4.62-3.46,8.72-6.18,17.73-8.14,26.96-.35,1.63-.67,3.26-.97,4.91l4.92.98,19.63,3.9Z" fill="#a97fe5"/><path d="M381.4,166.5h-73c-.12-4.68-.58-9.28-1.35-13.77-.28-1.65-.61-3.28-.97-4.9-1.03-4.54-2.38-8.96-4.03-13.24-.6-1.56-1.24-3.1-1.92-4.62l-4.62,1.91c.68,1.52,1.32,3.06,1.92,4.62,1.53,3.97,2.78,8.08,3.74,12.3.37,1.62.69,3.25.97,4.91.71,4.18,1.14,8.45,1.26,12.8.02.83.04,1.66.04,2.5s-.01,1.67-.04,2.5c-.12,4.35-.55,8.62-1.26,12.79-.28,1.65-.6,3.29-.97,4.91-.96,4.22-2.22,8.33-3.74,12.3-.6,1.56-1.24,3.1-1.92,4.62-1.76,3.93-3.8,7.71-6.08,11.32-.89,1.41-1.82,2.8-2.78,4.16-2.49,3.5-5.22,6.81-8.16,9.92-1.15,1.21-2.32,2.39-3.54,3.54-3.11,2.94-6.42,5.67-9.92,8.16-1.36.96-2.75,1.89-4.16,2.78-3.61,2.28-7.39,4.32-11.32,6.08l-6.9-16.65-1.91-4.62c-1.51.69-3.05,1.35-4.61,1.93-2.59.97-5.26,1.77-7.99,2.41-1.61.38-3.25.72-4.9.98-2.72.44-5.49.7-8.3.8v-18c1.62-.08,3.22-.24,4.79-.47,1.66-.24,3.3-.57,4.9-.97,1.57-.39,3.1-.86,4.6-1.4,1.58-.56,3.12-1.2,4.62-1.92,1.45-.69,2.87-1.45,4.24-2.28,1.43-.86,2.82-1.79,4.16-2.78,1.29-.96,2.53-1.98,3.71-3.05,1.24-1.12,2.42-2.3,3.54-3.54,1.08-1.19,2.1-2.43,3.05-3.72.99-1.34,1.92-2.72,2.78-4.16.82-1.37,1.58-2.79,2.27-4.24.71-1.5,1.35-3.04,1.92-4.62.54-1.5,1.01-3.04,1.4-4.6.4-1.61.73-3.24.97-4.9.23-1.57.39-3.17.47-4.79h18c-.1,2.81-.37,5.59-.8,8.3-.27,1.66-.6,3.29-.98,4.9-.65,2.73-1.45,5.4-2.41,7.99-.58,1.57-1.24,3.1-1.93,4.61-1.17,2.54-2.48,4.99-3.94,7.35-.88,1.42-1.81,2.8-2.79,4.15-1.63,2.26-3.4,4.41-5.29,6.44-1.14,1.22-2.31,2.4-3.54,3.54l3.53,3.53c1.22-1.14,2.4-2.32,3.54-3.54,2.12-2.27,4.09-4.67,5.92-7.2.97-1.35,1.91-2.73,2.79-4.15,1.64-2.63,3.1-5.38,4.4-8.22.69-1.51,1.34-3.05,1.93-4.61,1.09-2.89,1.98-5.87,2.7-8.92.38-1.62.71-3.25.98-4.9.49-3.03.79-6.13.9-9.28.03-.83.06-1.66.06-2.5s-.04-1.67-.06-2.5c-.11-3.15-.41-6.25-.9-9.28-.27-1.65-.6-3.29-.98-4.9-.72-3.05-1.61-6.03-2.7-8.92-.59-1.57-1.24-3.1-1.93-4.61-1.3-2.84-2.76-5.58-4.4-8.22-.88-1.42-1.81-2.8-2.79-4.15-1.82-2.53-3.79-4.93-5.92-7.2l12.74-12.74,3.54-3.54,14.14-14.14c4.09,4.27,7.86,8.86,11.27,13.71.96,1.36,1.89,2.74,2.79,4.15,3.18,4.97,5.99,10.2,8.39,15.65.67,1.52,1.32,3.06,1.92,4.62,2.14,5.48,3.87,11.15,5.16,16.99.36,1.62.69,3.26.98,4.9l4.91-.98,17.66-3.51,4.9-.98c-.3-1.65-.63-3.28-.98-4.9-1.66-7.66-3.92-15.09-6.75-22.25-.61-1.55-1.26-3.09-1.93-4.61-3.12-7.15-6.79-13.99-10.98-20.48-.9-1.4-1.84-2.78-2.79-4.15l-4.16,2.78c.95,1.37,1.89,2.75,2.79,4.15,4.01,6.22,7.53,12.78,10.52,19.62.67,1.53,1.32,3.06,1.93,4.61,2.71,6.85,4.87,13.98,6.47,21.31l-17.66,3.51c-1.36-6.16-3.18-12.16-5.44-17.93-.61-1.55-1.25-3.09-1.92-4.62-2.53-5.75-5.49-11.27-8.85-16.51-.9-1.4-1.83-2.79-2.79-4.15-3.59-5.13-7.57-9.97-11.89-14.47-1.15-1.2-2.33-2.38-3.54-3.54-4.5-4.32-9.34-8.3-14.47-11.89l10-14.96,2.78-4.16c-1.37-.95-2.75-1.88-4.15-2.79l-2.78,4.16-10,14.96c-5.24-3.36-10.76-6.32-16.51-8.85-1.52-.67-3.06-1.32-4.61-1.92l-1.91,4.62-7.66,18.48c1.56.6,3.1,1.24,4.62,1.92l7.65-18.48c5.45,2.4,10.68,5.21,15.65,8.39,1.41.9,2.79,1.83,4.15,2.79,4.86,3.41,9.44,7.18,13.71,11.27l-14.14,14.14-3.54,3.54-12.74,12.74-3.53,3.53c1.22,1.14,2.4,2.31,3.54,3.54,1.89,2.04,3.66,4.19,5.29,6.44.98,1.35,1.91,2.73,2.79,4.15,1.46,2.36,2.77,4.82,3.94,7.35.69,1.51,1.35,3.05,1.93,4.61.97,2.59,1.77,5.26,2.41,7.99.38,1.61.72,3.25.98,4.9.44,2.72.7,5.49.8,8.3h-18c-.08-1.62-.24-3.22-.47-4.79-.24-1.66-.57-3.3-.97-4.9-.39-1.57-.86-3.1-1.4-4.6-.56-1.58-1.2-3.12-1.92-4.62-.69-1.45-1.45-2.87-2.28-4.24-.86-1.43-1.79-2.82-2.78-4.15-.96-1.29-1.98-2.53-3.05-3.72-1.12-1.24-2.3-2.42-3.54-3.54-1.19-1.08-2.43-2.09-3.71-3.05-1.34-.99-2.72-1.92-4.16-2.78-1.37-.82-2.79-1.58-4.24-2.28-1.5-.71-3.04-1.35-4.62-1.92-1.5-.54-3.04-1.01-4.6-1.4-1.61-.4-3.24-.73-4.9-.97-1.57-.23-3.17-.39-4.79-.47v-18c2.81.1,5.59.37,8.3.8,1.66.27,3.29.6,4.9.98,2.73.65,5.4,1.45,7.99,2.41,1.57.58,3.1,1.23,4.61,1.93l1.91-4.62c-1.51-.69-3.05-1.34-4.61-1.93-2.89-1.09-5.87-1.98-8.92-2.7-1.62-.38-3.25-.71-4.9-.98-3.03-.49-6.13-.79-9.28-.9-.83-.03-1.66-.06-2.5-.06s-1.67.04-2.5.06c-3.15.11-6.25.41-9.28.9-1.65.27-3.29.6-4.9.98-3.05.72-6.03,1.61-8.92,2.7-1.57.59-3.1,1.24-4.61,1.93l1.91,4.62c1.51-.69,3.04-1.35,4.61-1.93,2.59-.97,5.26-1.77,7.99-2.41,1.61-.38,3.25-.72,4.9-.98,2.72-.44,5.49-.7,8.3-.8v18c-1.62.08-3.22.24-4.79.47-1.66.24-3.3.57-4.9.97-1.57.39-3.1.86-4.6,1.4-1.58.56-3.12,1.2-4.62,1.92-1.45.69-2.87,1.45-4.24,2.28-1.43.86-2.82,1.79-4.16,2.78-1.29.96-2.53,1.98-3.72,3.05-1.24,1.12-2.42,2.3-3.54,3.54-1.08,1.19-2.09,2.43-3.05,3.72-.99,1.33-1.92,2.72-2.78,4.16-.82,1.37-1.58,2.79-2.28,4.24-.71,1.5-1.35,3.04-1.92,4.62-.54,1.5-1.01,3.04-1.4,4.6-.4,1.61-.73,3.24-.97,4.9-.23,1.57-.39,3.17-.47,4.79-.04.83-.06,1.66-.06,2.5s.02,1.67.06,2.5c.08,1.62.24,3.22.47,4.79.24,1.66.57,3.3.97,4.9.39,1.57.86,3.1,1.4,4.6.56,1.58,1.2,3.12,1.92,4.62.69,1.45,1.45,2.87,2.28,4.24.86,1.43,1.79,2.82,2.78,4.16.96,1.29,1.98,2.53,3.05,3.72,1.12,1.24,2.3,2.42,3.54,3.54,1.19,1.08,2.43,2.09,3.71,3.05,1.33.99,2.72,1.92,4.15,2.78,1.37.82,2.79,1.58,4.24,2.28,1.5.71,3.04,1.35,4.62,1.92,1.5.54,3.04,1.01,4.6,1.4,1.61.4,3.24.73,4.9.97,1.57.23,3.17.39,4.79.47v23c.83.03,1.66.06,2.5.06s1.67-.04,2.5-.06c3.15-.11,6.25-.41,9.28-.9,1.65-.27,3.29-.6,4.9-.98,3.05-.72,6.03-1.61,8.92-2.7l6.89,16.64,1.91,4.62c1.56-.6,3.1-1.24,4.62-1.92,4.23-1.89,8.3-4.08,12.19-6.54,1.41-.89,2.8-1.82,4.16-2.78,3.77-2.67,7.34-5.61,10.68-8.78,1.21-1.15,2.39-2.33,3.54-3.54,3.17-3.34,6.11-6.91,8.78-10.68.96-1.36,1.89-2.75,2.78-4.16,2.46-3.88,4.65-7.96,6.54-12.19.68-1.52,1.32-3.06,1.92-4.62,1.65-4.28,3-8.7,4.03-13.24.37-1.62.69-3.26.97-4.9.77-4.49,1.23-9.09,1.35-13.77h20c-.13,6.01-.71,11.92-1.73,17.67-.29,1.65-.62,3.28-.98,4.9l4.9.98c.36-1.62.69-3.26.98-4.9,1.08-6.07,1.69-12.3,1.82-18.65h43c-.14,9.22-1.03,18.25-2.63,27.04-.3,1.64-.63,3.28-.98,4.9-1.92,8.96-4.56,17.66-7.87,26.01-.62,1.55-1.26,3.09-1.92,4.62-3.62,8.37-7.92,16.38-12.83,23.96l-16.68-11.14-4.16-2.78c-.9,1.4-1.84,2.78-2.79,4.15l4.16,2.78,16.68,11.15c-5.17,7.47-10.94,14.49-17.25,20.99-1.16,1.2-2.34,2.37-3.54,3.54-6.5,6.31-13.52,12.08-20.99,17.25l-11.15-16.68-2.78-4.16-10-14.96c5.13-3.59,9.96-7.57,14.47-11.89l12.72,12.72,3.53,3.53c1.2-1.16,2.38-2.34,3.54-3.54l-3.53-3.53-12.72-12.72c4.32-4.5,8.3-9.34,11.89-14.47.96-1.36,1.89-2.75,2.79-4.15,3.36-5.24,6.32-10.76,8.85-16.51l16.63,6.89,4.62,1.91c.67-1.53,1.31-3.06,1.93-4.61,2.83-7.15,5.09-14.59,6.75-22.25.35-1.63.69-3.26.98-4.9l-4.9-.98c-.3,1.65-.63,3.28-.98,4.9-1.59,7.33-3.76,14.46-6.47,21.31l-16.64-6.89-4.62-1.91c-.61,1.56-1.25,3.09-1.92,4.62-2.4,5.45-5.21,10.68-8.39,15.65-.9,1.41-1.83,2.79-2.79,4.15-3.41,4.86-7.18,9.44-11.27,13.71-1.15,1.2-2.33,2.38-3.54,3.54-4.27,4.09-8.86,7.86-13.71,11.27-1.36.96-2.75,1.89-4.15,2.79-4.97,3.18-10.2,5.99-15.65,8.39-1.52.67-3.06,1.32-4.62,1.92-5.48,2.14-11.15,3.87-16.99,5.16-1.62.36-3.26.69-4.9.98l.98,4.91,3.51,17.66c-7.21,1.3-14.62,2.03-22.16,2.16-.83.01-1.66.03-2.5.03s-1.67-.02-2.5-.03v5c.83.01,1.66.03,2.5.03s1.67-.02,2.5-.03c7.88-.13,15.61-.9,23.14-2.26,1.65-.3,3.28-.63,4.9-.98,7.66-1.66,15.09-3.92,22.25-6.75,1.55-.61,3.09-1.26,4.61-1.93l-1.91-4.62c-1.53.67-3.06,1.32-4.61,1.93-6.85,2.71-13.98,4.87-21.31,6.47l-3.51-17.66c6.16-1.36,12.16-3.18,17.93-5.44,1.55-.61,3.09-1.25,4.62-1.92,5.75-2.53,11.27-5.49,16.51-8.85l10,14.96,2.78,4.16,11.14,16.68c-7.58,4.91-15.59,9.2-23.96,12.83-1.53.66-3.06,1.31-4.62,1.92-8.35,3.32-17.05,5.96-26.01,7.87-1.63.35-3.26.68-4.9.98-8.79,1.6-17.83,2.49-27.04,2.63-.83.01-1.66.03-2.5.03s-1.67-.02-2.5-.03c-9.22-.14-18.25-1.03-27.04-2.63l3.9-19.63.98-4.9,3.51-17.66c6.07,1.08,12.3,1.69,18.65,1.82.83.02,1.66.03,2.5.03s1.67-.01,2.5-.03v-30c-.83.02-1.66.04-2.5.04s-1.67-.01-2.5-.04v25c-6.01-.13-11.92-.71-17.68-1.73-1.65-.29-3.28-.62-4.9-.98l-.98,4.9-3.51,17.66-.98,4.9-3.91,19.63c-8.96-1.92-17.66-4.56-26.01-7.87-1.55-.62-3.09-1.26-4.62-1.92-8.37-3.62-16.38-7.92-23.96-12.83-1.4-.91-2.78-1.84-4.15-2.79-7.47-5.17-14.49-10.94-20.99-17.25-1.2-1.16-2.37-2.34-3.54-3.54-6.31-6.5-12.08-13.52-17.25-20.99-.95-1.37-1.88-2.75-2.79-4.15-4.91-7.58-9.2-15.59-12.83-23.96-.66-1.53-1.31-3.06-1.92-4.62-3.32-8.35-5.96-17.05-7.87-26.01-.35-1.63-.68-3.26-.98-4.9-1.6-8.79-2.49-17.83-2.63-27.04-.01-.83-.03-1.66-.03-2.5s.02-1.67.03-2.5h-5c-.01.83-.03,1.67-.03,2.5s.02,1.67.03,2.5c.14,9.49,1.05,18.86,2.71,28.02.3,1.64.62,3.28.97,4.91,1.96,9.23,4.68,18.24,8.14,26.96.61,1.55,1.25,3.09,1.91,4.62,3.72,8.61,8.16,16.91,13.31,24.82.91,1.4,1.84,2.78,2.79,4.15,5.31,7.66,11.28,14.92,17.9,21.73.58.6,1.16,1.2,1.75,1.79s1.19,1.17,1.79,1.75c6.81,6.61,14.08,12.59,21.73,17.9,1.37.95,2.76,1.88,4.15,2.79,7.91,5.14,16.21,9.59,24.82,13.31,1.53.66,3.07,1.3,4.62,1.91,8.72,3.46,17.73,6.18,26.96,8.14,1.63.35,3.26.67,4.91.97,9.17,1.66,18.53,2.58,28.02,2.71.83.01,1.66.03,2.5.03s1.67-.02,2.5-.03c9.49-.14,18.86-1.05,28.02-2.71,1.64-.3,3.28-.62,4.91-.97,9.23-1.96,18.24-4.68,26.96-8.14,1.55-.61,3.09-1.25,4.62-1.91,8.61-3.72,16.91-8.16,24.82-13.31,1.4-.91,2.78-1.84,4.15-2.79,7.66-5.31,14.92-11.28,21.73-17.9.6-.58,1.2-1.16,1.79-1.75s1.17-1.19,1.75-1.79c6.62-6.81,12.59-14.08,17.9-21.73.95-1.37,1.88-2.76,2.79-4.15,5.14-7.91,9.59-16.21,13.31-24.82.66-1.53,1.3-3.07,1.91-4.62,3.46-8.72,6.18-17.73,8.14-26.96.35-1.63.67-3.26.97-4.91,1.66-9.17,2.58-18.53,2.71-28.02.01-.83.03-1.67.03-2.5s-.02-1.67-.03-2.5ZM212.43,214c-.84,0-1.67-.03-2.5-.07-1.29-.07-2.56-.2-3.81-.38-1.67-.23-3.3-.55-4.91-.96-1.24-.32-2.46-.7-3.67-1.12-1.58-.55-3.13-1.18-4.62-1.9-1.15-.56-2.28-1.17-3.37-1.82-1.44-.85-2.83-1.77-4.16-2.78-1.02-.77-2.01-1.58-2.96-2.43-1.24-1.11-2.42-2.29-3.54-3.54-.85-.95-1.67-1.94-2.44-2.96-1-1.33-1.93-2.72-2.78-4.16-.65-1.1-1.26-2.22-1.82-3.37-.72-1.5-1.35-3.04-1.9-4.62-.42-1.2-.8-2.42-1.12-3.67-.41-1.6-.73-3.24-.96-4.91-.18-1.26-.31-2.53-.38-3.81-.05-.83-.07-1.66-.07-2.5s.03-1.67.07-2.5c.07-1.29.2-2.56.38-3.81.23-1.67.55-3.31.96-4.91.32-1.24.7-2.46,1.12-3.67.55-1.58,1.18-3.13,1.9-4.62.56-1.15,1.17-2.28,1.82-3.37.85-1.44,1.78-2.83,2.78-4.16.77-1.02,1.58-2.01,2.44-2.96,1.11-1.24,2.29-2.42,3.54-3.54.95-.85,1.94-1.67,2.96-2.44,1.33-1,2.72-1.92,4.16-2.78,1.1-.65,2.22-1.26,3.37-1.82,1.5-.72,3.04-1.35,4.62-1.9,1.2-.42,2.42-.8,3.67-1.12,1.6-.41,3.24-.73,4.91-.96,1.26-.18,2.53-.31,3.81-.38.83-.05,1.66-.07,2.5-.07s1.67.03,2.5.07c1.29.07,2.56.2,3.81.38,1.67.23,3.31.55,4.91.96,1.24.32,2.46.7,3.67,1.12,1.58.55,3.13,1.18,4.62,1.9,1.15.56,2.28,1.17,3.37,1.82,1.44.85,2.83,1.78,4.16,2.78,1.02.77,2.01,1.58,2.96,2.43,1.24,1.11,2.42,2.29,3.54,3.54.85.95,1.67,1.94,2.44,2.96,1,1.33,1.92,2.72,2.78,4.16.65,1.1,1.26,2.22,1.82,3.37.72,1.5,1.35,3.04,1.91,4.62.42,1.2.8,2.42,1.12,3.67.41,1.6.73,3.24.96,4.91.18,1.26.31,2.53.38,3.81.05.83.07,1.66.07,2.5s-.03,1.67-.07,2.5c-.07,1.29-.2,2.56-.38,3.81-.23,1.67-.55,3.31-.96,4.91-.32,1.25-.7,2.46-1.12,3.67-.55,1.58-1.18,3.13-1.9,4.62-.56,1.15-1.17,2.28-1.82,3.37-.85,1.44-1.78,2.83-2.78,4.16-.77,1.02-1.58,2.01-2.44,2.96-1.11,1.24-2.29,2.42-3.54,3.54-.95.85-1.94,1.67-2.96,2.43-1.33,1-2.72,1.93-4.16,2.78-1.1.65-2.22,1.26-3.37,1.82-1.5.72-3.04,1.35-4.62,1.91-1.2.42-2.42.8-3.66,1.12-1.6.41-3.24.73-4.91.96-1.26.18-2.53.31-3.81.38-.83.05-1.66.07-2.5.07Z" fill="#a97fe5"/></g><path id="solution-path" d="M2.5,152.04c19,.33,38,.67,57,1-.38,5.77-.57,13.27,0,22,1.09,16.76,4.42,29.48,6,35,5.98,20.85,14.67,35.25,17,39,10.51,16.94,21.75,27.37,29,34,8.42,7.7,18.37,16.65,34,24,9.07,4.26,17.16,6.63,23,8,4.33-15,8.67-30,13-45,3.33.67,6.67,1.33,10,2l9-45c-3.97-.81-9.75-2.45-16-6-8.88-5.04-14.01-11.29-17-15-2.9-3.6-7.08-8.88-10-17-3.3-9.19-3.15-16.9-3-22,.14-4.74.43-12.2,4-21,3.22-7.94,7.56-13.13,10-16,4.31-5.07,8.67-8.63,12-11-4.33-6.33-8.67-12.67-13-19,2.04-1.67,5.05-3.9,9-6,6.67-3.55,12.43-4.81,18-6,2.68-.57,8.46-1.68,16-2,7.1-.3,13.5.18,19,1,1.67-7.67,3.33-15.33,5-23,3.33,1,6.67,2,10,3,2.33-7.33,4.67-14.67,7-22,3.07.72,6.43,1.69,10,3,5.04,1.85,9.39,3.96,13,6,3.67-6.67,7.33-13.33,11-20,1.83.66,4.25,1.63,7,3,2.4,1.2,6.48,3.27,11,7,1.96,1.62,4.45,3.91,7,7-4.67,6-9.33,12-14,18,1.29.94,3.04,2.27,5,4,2.45,2.17,4.12,3.97,6,6,1.64,1.77,3.71,4.12,6,7,6-4.67,12-9.33,18-14,2.57,2.81,5.7,6.49,9,11,5.81,7.95,9.4,14.79,11,18,5.14,10.29,7.53,18.73,9,24,1.98,7.12,4.05,16.6,5,28h46" fill="none" stroke="#000" stroke-linecap="round" stroke-linejoin="round" stroke-width="5"/></g></svg>
