<?xml version="1.0" encoding="UTF-8"?><svg xmlns="http://www.w3.org/2000/svg" viewBox="0 0 414 338">
                        <g id="maze-walls">
                            <!-- This is the path for the circular maze walls -->
                            <path d="M212.43,214c-.84,0-1.67-.03-2.5-.07-1.29-.07-2.56-.2-3.81-.38-1.67-.23-3.3-.55-4.91-.96-1.24-.32-2.46-.7-3.67-1.12-1.58-.55-3.13-1.18-4.62-1.9-1.15-.56-2.28-1.17-3.37-1.82-1.44-.85-2.83-1.77-4.16-2.78-1.02-.77-2.01-1.58-2.96-2.43-1.24-1.11-2.42-2.29-3.54-3.54-.85-.95-1.67-1.94-2.44-2.96-1-1.33-1.93-2.72-2.78-4.16-.65-1.1-1.26-2.22-1.82-3.37-.72-1.5-1.35-3.04-1.9-4.62-.42-1.2-.8-2.42-1.12-3.67-.41-1.6-.73-3.24-.96-4.91-.18-1.26-.31-2.53-.38-3.81-.05-.83-.07-1.66-.07-2.5s.03-1.67.07-2.5c.07-1.29.2-2.56.38-3.81.23-1.67.55-3.31.96-4.91.32-1.24.7-2.46,1.12-3.67.55-1.58,1.18-3.13,1.9-4.62.56-1.15,1.17-2.28,1.82-3.37.85-1.44,1.78-2.83,2.78-4.16.77-1.02,1.58-2.01,2.44-2.96,1.11-1.24,2.29-2.42,3.54-3.54.95-.85,1.94-1.67,2.96-2.44,1.33-1,2.72-1.92,4.16-2.78,1.1-.65,2.22-1.26,3.37-1.82,1.5-.72,3.04-1.35,4.62-1.9,1.2-.42,2.42-.8,3.67-1.12,1.6-.41,3.24-.73,4.91-.96,1.26-.18,2.53-.31,3.81-.38.83-.05,1.66-.07,2.5-.07s1.67.03,2.5.07c1.29.07,2.56.2,3.81.38,1.67.23,3.31.55,4.91.96,1.24.32,2.46.7,3.67,1.12,1.58.55,3.13,1.18,4.62,1.9,1.15.56,2.28,1.17,3.37,1.82,1.44.85,2.83,1.78,4.16,2.78,1.02.77,2.01,1.58,2.96,2.43,1.24,1.11,2.42,2.29,3.54,3.54.85.95,1.67,1.94,2.44,2.96,1,1.33,1.92,2.72,2.78,4.16.65,1.1,1.26,2.22,1.82,3.37.72,1.5,1.35,3.04,1.91,4.62.42,1.2.8,2.42,1.12,3.67.41,1.6.73,3.24.96,4.91.18,1.26.31,2.53.38,3.81.05.83.07,1.66.07,2.5s-.03,1.67-.07,2.5c-.07,1.29-.2,2.56-.38,3.81-.23,1.67-.55,3.31-.96,4.91-.32,1.25-.7,2.46-1.12,3.67-.55,1.58-1.18,3.13-1.9,4.62-.56,1.15-1.17,2.28-1.82,3.37-.85,1.44-1.78,2.83-2.78,4.16-.77,1.02-1.58,2.01-2.44,2.96-1.11,1.24-2.29,2.42-3.54,3.54-.95.85-1.94,1.67-2.96,2.43-1.33,1-2.72,1.93-4.16,2.78-1.1.65-2.22,1.26-3.37,1.82-1.5.72-3.04,1.35-4.62,1.91-1.2.42-2.42.8-3.66,1.12-1.6.41-3.24.73-4.91.96-1.26.18-2.53.31-3.81.38-.83.05-1.66.07-2.5.07Z"/>
                        </g>
                        <!-- This is the animatable solution path -->
                        <path id="solution-path" d="M2.5,152.04c19,.33,38,.67,57,1-.38,5.77-.57,13.27,0,22,1.09,16.76,4.42,29.48,6,35,5.98,20.85,14.67,35.25,17,39,10.51,16.94,21.75,27.37,29,34,8.42,7.7,18.37,16.65,34,24,9.07,4.26,17.16,6.63,23,8,4.33-15,8.67-30,13-45,3.33.67,6.67,1.33,10,2l9-45c-3.97-.81-9.75-2.45-16-6-8.88-5.04-14.01-11.29-17-15-2.9-3.6-7.08-8.88-10-17-3.3-9.19-3.15-16.9-3-22,.14-4.74.43-12.2,4-21,3.22-7.94,7.56-13.13,10-16,4.31-5.07,8.67-8.63,12-11-4.33-6.33-8.67-12.67-13-19,2.04-1.67,5.05-3.9,9-6,6.67-3.55,12.43-4.81,18-6,2.68-.57,8.46-1.68,16-2,7.1-.3,13.5.18,19,1,1.67-7.67,3.33-15.33,5-23,3.33,1,6.67,2,10,3,2.33-7.33,4.67-14.67,7-22,3.07.72,6.43,1.69,10,3,5.04,1.85,9.39,3.96,13,6,3.67-6.67,7.33-13.33,11-20,1.83.66,4.25,1.63,7,3,2.4,1.2,6.48,3.27,11,7,1.96,1.62,4.45,3.91,7,7-4.67,6-9.33,12-14,18,1.29.94,3.04,2.27,5,4,2.45,2.17,4.12,3.97,6,6,1.64,1.77,3.71,4.12,6,7,6-4.67,12-9.33,18-14,2.57,2.81,5.7,6.49,9,11,5.81,7.95,9.4,14.79,11,18,5.14,10.29,7.53,18.73,9,24,1.98,7.12,4.05,16.6,5,28h46"/>
                    </svg>
